<mxfile host="app.diagrams.net" modified="2022-03-05T15:13:48.864Z" agent="5.0 (Macintosh; Intel Mac OS X 10_15_7) AppleWebKit/605.1.15 (KHTML, like Gecko) Version/15.3 Safari/605.1.15" etag="FBV_lBAeOV7Wz3DcBStm" version="16.6.6" type="github">
  <diagram id="C5RBs43oDa-KdzZeNtuy" name="Page-1">
    <mxGraphModel dx="2223" dy="1039" grid="1" gridSize="10" guides="1" tooltips="1" connect="1" arrows="1" fold="1" page="1" pageScale="1" pageWidth="827" pageHeight="1169" math="0" shadow="0">
      <root>
        <mxCell id="WIyWlLk6GJQsqaUBKTNV-0" />
        <mxCell id="WIyWlLk6GJQsqaUBKTNV-1" parent="WIyWlLk6GJQsqaUBKTNV-0" />
        <mxCell id="E5Nv5NFeGknIxwn_lmIp-11" value="" style="rounded=0;whiteSpace=wrap;html=1;fillColor=none;" vertex="1" parent="WIyWlLk6GJQsqaUBKTNV-1">
          <mxGeometry x="350" y="810" width="230" height="260" as="geometry" />
        </mxCell>
        <mxCell id="WIyWlLk6GJQsqaUBKTNV-2" value="" style="rounded=0;html=1;jettySize=auto;orthogonalLoop=1;fontSize=11;endArrow=block;endFill=0;endSize=8;strokeWidth=1;shadow=0;labelBackgroundColor=none;edgeStyle=orthogonalEdgeStyle;" parent="WIyWlLk6GJQsqaUBKTNV-1" source="WIyWlLk6GJQsqaUBKTNV-3" target="WIyWlLk6GJQsqaUBKTNV-6" edge="1">
          <mxGeometry relative="1" as="geometry" />
        </mxCell>
        <mxCell id="WIyWlLk6GJQsqaUBKTNV-3" value="Lamp doesn&#39;t work" style="rounded=1;whiteSpace=wrap;html=1;fontSize=12;glass=0;strokeWidth=1;shadow=0;" parent="WIyWlLk6GJQsqaUBKTNV-1" vertex="1">
          <mxGeometry x="160" y="80" width="120" height="40" as="geometry" />
        </mxCell>
        <mxCell id="WIyWlLk6GJQsqaUBKTNV-4" value="Yes" style="rounded=0;html=1;jettySize=auto;orthogonalLoop=1;fontSize=11;endArrow=block;endFill=0;endSize=8;strokeWidth=1;shadow=0;labelBackgroundColor=none;edgeStyle=orthogonalEdgeStyle;" parent="WIyWlLk6GJQsqaUBKTNV-1" source="WIyWlLk6GJQsqaUBKTNV-6" target="WIyWlLk6GJQsqaUBKTNV-10" edge="1">
          <mxGeometry y="20" relative="1" as="geometry">
            <mxPoint as="offset" />
          </mxGeometry>
        </mxCell>
        <mxCell id="WIyWlLk6GJQsqaUBKTNV-5" value="No" style="edgeStyle=orthogonalEdgeStyle;rounded=0;html=1;jettySize=auto;orthogonalLoop=1;fontSize=11;endArrow=block;endFill=0;endSize=8;strokeWidth=1;shadow=0;labelBackgroundColor=none;" parent="WIyWlLk6GJQsqaUBKTNV-1" source="WIyWlLk6GJQsqaUBKTNV-6" target="WIyWlLk6GJQsqaUBKTNV-7" edge="1">
          <mxGeometry y="10" relative="1" as="geometry">
            <mxPoint as="offset" />
          </mxGeometry>
        </mxCell>
        <mxCell id="WIyWlLk6GJQsqaUBKTNV-6" value="Lamp&lt;br&gt;plugged in?" style="rhombus;whiteSpace=wrap;html=1;shadow=0;fontFamily=Helvetica;fontSize=12;align=center;strokeWidth=1;spacing=6;spacingTop=-4;" parent="WIyWlLk6GJQsqaUBKTNV-1" vertex="1">
          <mxGeometry x="170" y="170" width="100" height="80" as="geometry" />
        </mxCell>
        <mxCell id="WIyWlLk6GJQsqaUBKTNV-7" value="Plug in lamp" style="rounded=1;whiteSpace=wrap;html=1;fontSize=12;glass=0;strokeWidth=1;shadow=0;" parent="WIyWlLk6GJQsqaUBKTNV-1" vertex="1">
          <mxGeometry x="320" y="190" width="120" height="40" as="geometry" />
        </mxCell>
        <mxCell id="WIyWlLk6GJQsqaUBKTNV-8" value="No" style="rounded=0;html=1;jettySize=auto;orthogonalLoop=1;fontSize=11;endArrow=block;endFill=0;endSize=8;strokeWidth=1;shadow=0;labelBackgroundColor=none;edgeStyle=orthogonalEdgeStyle;" parent="WIyWlLk6GJQsqaUBKTNV-1" source="WIyWlLk6GJQsqaUBKTNV-10" target="WIyWlLk6GJQsqaUBKTNV-11" edge="1">
          <mxGeometry x="0.3333" y="20" relative="1" as="geometry">
            <mxPoint as="offset" />
          </mxGeometry>
        </mxCell>
        <mxCell id="WIyWlLk6GJQsqaUBKTNV-9" value="Yes" style="edgeStyle=orthogonalEdgeStyle;rounded=0;html=1;jettySize=auto;orthogonalLoop=1;fontSize=11;endArrow=block;endFill=0;endSize=8;strokeWidth=1;shadow=0;labelBackgroundColor=none;" parent="WIyWlLk6GJQsqaUBKTNV-1" source="WIyWlLk6GJQsqaUBKTNV-10" target="WIyWlLk6GJQsqaUBKTNV-12" edge="1">
          <mxGeometry y="10" relative="1" as="geometry">
            <mxPoint as="offset" />
          </mxGeometry>
        </mxCell>
        <mxCell id="WIyWlLk6GJQsqaUBKTNV-10" value="Bulb&lt;br&gt;burned out?" style="rhombus;whiteSpace=wrap;html=1;shadow=0;fontFamily=Helvetica;fontSize=12;align=center;strokeWidth=1;spacing=6;spacingTop=-4;" parent="WIyWlLk6GJQsqaUBKTNV-1" vertex="1">
          <mxGeometry x="170" y="290" width="100" height="80" as="geometry" />
        </mxCell>
        <mxCell id="WIyWlLk6GJQsqaUBKTNV-11" value="Repair Lamp" style="rounded=1;whiteSpace=wrap;html=1;fontSize=12;glass=0;strokeWidth=1;shadow=0;" parent="WIyWlLk6GJQsqaUBKTNV-1" vertex="1">
          <mxGeometry x="160" y="430" width="120" height="40" as="geometry" />
        </mxCell>
        <mxCell id="WIyWlLk6GJQsqaUBKTNV-12" value="Replace Bulb" style="rounded=1;whiteSpace=wrap;html=1;fontSize=12;glass=0;strokeWidth=1;shadow=0;" parent="WIyWlLk6GJQsqaUBKTNV-1" vertex="1">
          <mxGeometry x="320" y="310" width="120" height="40" as="geometry" />
        </mxCell>
        <mxCell id="E5Nv5NFeGknIxwn_lmIp-0" value="" style="image;html=1;image=img/lib/clip_art/computers/Database_Add_128x128.png" vertex="1" parent="WIyWlLk6GJQsqaUBKTNV-1">
          <mxGeometry x="460" y="605" width="130" height="120" as="geometry" />
        </mxCell>
        <mxCell id="E5Nv5NFeGknIxwn_lmIp-1" value="" style="image;html=1;image=img/lib/clip_art/computers/Database_128x128.png" vertex="1" parent="WIyWlLk6GJQsqaUBKTNV-1">
          <mxGeometry x="170" y="625" width="80" height="80" as="geometry" />
        </mxCell>
        <mxCell id="E5Nv5NFeGknIxwn_lmIp-2" value="" style="html=1;shadow=0;dashed=0;align=center;verticalAlign=middle;shape=mxgraph.arrows2.arrow;dy=0.6;dx=40;notch=15;fillColor=#dae8fc;strokeColor=#6c8ebf;gradientColor=#7ea6e0;" vertex="1" parent="WIyWlLk6GJQsqaUBKTNV-1">
          <mxGeometry x="240" y="895" width="100" height="70" as="geometry" />
        </mxCell>
        <mxCell id="E5Nv5NFeGknIxwn_lmIp-4" value="" style="image;html=1;image=img/lib/clip_art/computers/Database_128x128.png" vertex="1" parent="WIyWlLk6GJQsqaUBKTNV-1">
          <mxGeometry x="130" y="890" width="80" height="80" as="geometry" />
        </mxCell>
        <mxCell id="E5Nv5NFeGknIxwn_lmIp-5" value="" style="image;html=1;image=img/lib/clip_art/computers/Database_Add_128x128.png" vertex="1" parent="WIyWlLk6GJQsqaUBKTNV-1">
          <mxGeometry x="360" y="840" width="80" height="80" as="geometry" />
        </mxCell>
        <mxCell id="E5Nv5NFeGknIxwn_lmIp-6" value="" style="image;html=1;image=img/lib/clip_art/computers/Database_Add_128x128.png" vertex="1" parent="WIyWlLk6GJQsqaUBKTNV-1">
          <mxGeometry x="490" y="840" width="80" height="80" as="geometry" />
        </mxCell>
        <mxCell id="E5Nv5NFeGknIxwn_lmIp-7" value="" style="image;html=1;image=img/lib/clip_art/computers/Database_Add_128x128.png" vertex="1" parent="WIyWlLk6GJQsqaUBKTNV-1">
          <mxGeometry x="490" y="970" width="80" height="80" as="geometry" />
        </mxCell>
        <mxCell id="E5Nv5NFeGknIxwn_lmIp-9" value="" style="image;html=1;image=img/lib/clip_art/computers/Database_128x128.png" vertex="1" parent="WIyWlLk6GJQsqaUBKTNV-1">
          <mxGeometry x="360" y="970" width="80" height="80" as="geometry" />
        </mxCell>
        <mxCell id="E5Nv5NFeGknIxwn_lmIp-14" value="" style="outlineConnect=0;dashed=0;verticalLabelPosition=bottom;verticalAlign=top;align=center;html=1;shape=mxgraph.aws3.mysql_db_instance_2;fillColor=#2E73B8;gradientColor=none;" vertex="1" parent="WIyWlLk6GJQsqaUBKTNV-1">
          <mxGeometry x="936" y="1379" width="60" height="63" as="geometry" />
        </mxCell>
        <mxCell id="E5Nv5NFeGknIxwn_lmIp-15" value="" style="outlineConnect=0;dashed=0;verticalLabelPosition=bottom;verticalAlign=top;align=center;html=1;shape=mxgraph.aws3.mysql_db_instance_2;fillColor=#2E73B8;gradientColor=none;" vertex="1" parent="WIyWlLk6GJQsqaUBKTNV-1">
          <mxGeometry x="1036" y="1379" width="60" height="63" as="geometry" />
        </mxCell>
        <mxCell id="E5Nv5NFeGknIxwn_lmIp-13" value="" style="outlineConnect=0;dashed=0;verticalLabelPosition=bottom;verticalAlign=top;align=center;html=1;shape=mxgraph.aws3.mysql_db_instance;fillColor=#2E73B8;gradientColor=none;" vertex="1" parent="WIyWlLk6GJQsqaUBKTNV-1">
          <mxGeometry x="986" y="1309" width="60" height="64.5" as="geometry" />
        </mxCell>
        <mxCell id="E5Nv5NFeGknIxwn_lmIp-16" value="" style="outlineConnect=0;dashed=0;verticalLabelPosition=bottom;verticalAlign=top;align=center;html=1;shape=mxgraph.aws3.mysql_db_instance_2;fillColor=#2E73B8;gradientColor=none;" vertex="1" parent="WIyWlLk6GJQsqaUBKTNV-1">
          <mxGeometry x="1176" y="1379" width="60" height="63" as="geometry" />
        </mxCell>
        <mxCell id="E5Nv5NFeGknIxwn_lmIp-17" value="" style="outlineConnect=0;dashed=0;verticalLabelPosition=bottom;verticalAlign=top;align=center;html=1;shape=mxgraph.aws3.mysql_db_instance_2;fillColor=#2E73B8;gradientColor=none;" vertex="1" parent="WIyWlLk6GJQsqaUBKTNV-1">
          <mxGeometry x="1276" y="1379" width="60" height="63" as="geometry" />
        </mxCell>
        <mxCell id="E5Nv5NFeGknIxwn_lmIp-18" value="" style="outlineConnect=0;dashed=0;verticalLabelPosition=bottom;verticalAlign=top;align=center;html=1;shape=mxgraph.aws3.mysql_db_instance;fillColor=#2E73B8;gradientColor=none;" vertex="1" parent="WIyWlLk6GJQsqaUBKTNV-1">
          <mxGeometry x="1226" y="1309" width="60" height="64.5" as="geometry" />
        </mxCell>
        <mxCell id="E5Nv5NFeGknIxwn_lmIp-19" value="" style="outlineConnect=0;dashed=0;verticalLabelPosition=bottom;verticalAlign=top;align=center;html=1;shape=mxgraph.aws3.mysql_db_instance_2;fillColor=#2E73B8;gradientColor=none;" vertex="1" parent="WIyWlLk6GJQsqaUBKTNV-1">
          <mxGeometry x="1426" y="1379" width="60" height="63" as="geometry" />
        </mxCell>
        <mxCell id="E5Nv5NFeGknIxwn_lmIp-20" value="" style="outlineConnect=0;dashed=0;verticalLabelPosition=bottom;verticalAlign=top;align=center;html=1;shape=mxgraph.aws3.mysql_db_instance_2;fillColor=#2E73B8;gradientColor=none;" vertex="1" parent="WIyWlLk6GJQsqaUBKTNV-1">
          <mxGeometry x="1526" y="1379" width="60" height="63" as="geometry" />
        </mxCell>
        <mxCell id="E5Nv5NFeGknIxwn_lmIp-21" value="" style="outlineConnect=0;dashed=0;verticalLabelPosition=bottom;verticalAlign=top;align=center;html=1;shape=mxgraph.aws3.mysql_db_instance;fillColor=#2E73B8;gradientColor=none;" vertex="1" parent="WIyWlLk6GJQsqaUBKTNV-1">
          <mxGeometry x="1476" y="1309" width="60" height="64.5" as="geometry" />
        </mxCell>
        <mxCell id="E5Nv5NFeGknIxwn_lmIp-22" value="&lt;font style=&quot;font-size: 18px&quot;&gt;shard1&lt;/font&gt;" style="text;html=1;strokeColor=none;fillColor=none;align=center;verticalAlign=middle;whiteSpace=wrap;rounded=0;" vertex="1" parent="WIyWlLk6GJQsqaUBKTNV-1">
          <mxGeometry x="986" y="1449" width="70" height="40" as="geometry" />
        </mxCell>
        <mxCell id="E5Nv5NFeGknIxwn_lmIp-23" value="&lt;font style=&quot;font-size: 18px&quot;&gt;shard2&lt;/font&gt;" style="text;html=1;strokeColor=none;fillColor=none;align=center;verticalAlign=middle;whiteSpace=wrap;rounded=0;" vertex="1" parent="WIyWlLk6GJQsqaUBKTNV-1">
          <mxGeometry x="1226" y="1449" width="70" height="40" as="geometry" />
        </mxCell>
        <mxCell id="E5Nv5NFeGknIxwn_lmIp-24" value="&lt;font style=&quot;font-size: 18px&quot;&gt;shard3&lt;/font&gt;" style="text;html=1;strokeColor=none;fillColor=none;align=center;verticalAlign=middle;whiteSpace=wrap;rounded=0;" vertex="1" parent="WIyWlLk6GJQsqaUBKTNV-1">
          <mxGeometry x="1476" y="1449" width="70" height="40" as="geometry" />
        </mxCell>
        <mxCell id="E5Nv5NFeGknIxwn_lmIp-25" value="" style="outlineConnect=0;dashed=0;verticalLabelPosition=bottom;verticalAlign=top;align=center;html=1;shape=mxgraph.aws3.mysql_db_instance_2;fillColor=#2E73B8;gradientColor=none;" vertex="1" parent="WIyWlLk6GJQsqaUBKTNV-1">
          <mxGeometry x="-200" y="1701.5" width="60" height="63" as="geometry" />
        </mxCell>
        <mxCell id="E5Nv5NFeGknIxwn_lmIp-26" value="" style="outlineConnect=0;dashed=0;verticalLabelPosition=bottom;verticalAlign=top;align=center;html=1;shape=mxgraph.aws3.mysql_db_instance_2;fillColor=#2E73B8;gradientColor=none;" vertex="1" parent="WIyWlLk6GJQsqaUBKTNV-1">
          <mxGeometry x="-100" y="1701.5" width="60" height="63" as="geometry" />
        </mxCell>
        <mxCell id="E5Nv5NFeGknIxwn_lmIp-27" value="" style="outlineConnect=0;dashed=0;verticalLabelPosition=bottom;verticalAlign=top;align=center;html=1;shape=mxgraph.aws3.mysql_db_instance;fillColor=#2E73B8;gradientColor=none;" vertex="1" parent="WIyWlLk6GJQsqaUBKTNV-1">
          <mxGeometry x="-150" y="1631.5" width="60" height="64.5" as="geometry" />
        </mxCell>
        <mxCell id="E5Nv5NFeGknIxwn_lmIp-28" value="" style="outlineConnect=0;dashed=0;verticalLabelPosition=bottom;verticalAlign=top;align=center;html=1;shape=mxgraph.aws3.mysql_db_instance_2;fillColor=#2E73B8;gradientColor=none;" vertex="1" parent="WIyWlLk6GJQsqaUBKTNV-1">
          <mxGeometry x="-340" y="1900" width="60" height="63" as="geometry" />
        </mxCell>
        <mxCell id="E5Nv5NFeGknIxwn_lmIp-29" value="" style="outlineConnect=0;dashed=0;verticalLabelPosition=bottom;verticalAlign=top;align=center;html=1;shape=mxgraph.aws3.mysql_db_instance_2;fillColor=#2E73B8;gradientColor=none;" vertex="1" parent="WIyWlLk6GJQsqaUBKTNV-1">
          <mxGeometry x="-240" y="1900" width="60" height="63" as="geometry" />
        </mxCell>
        <mxCell id="E5Nv5NFeGknIxwn_lmIp-30" value="" style="outlineConnect=0;dashed=0;verticalLabelPosition=bottom;verticalAlign=top;align=center;html=1;shape=mxgraph.aws3.mysql_db_instance;fillColor=#2E73B8;gradientColor=none;" vertex="1" parent="WIyWlLk6GJQsqaUBKTNV-1">
          <mxGeometry x="-290" y="1830" width="60" height="64.5" as="geometry" />
        </mxCell>
        <mxCell id="E5Nv5NFeGknIxwn_lmIp-31" value="" style="outlineConnect=0;dashed=0;verticalLabelPosition=bottom;verticalAlign=top;align=center;html=1;shape=mxgraph.aws3.mysql_db_instance_2;fillColor=#2E73B8;gradientColor=none;" vertex="1" parent="WIyWlLk6GJQsqaUBKTNV-1">
          <mxGeometry x="-70" y="1900" width="60" height="63" as="geometry" />
        </mxCell>
        <mxCell id="E5Nv5NFeGknIxwn_lmIp-32" value="" style="outlineConnect=0;dashed=0;verticalLabelPosition=bottom;verticalAlign=top;align=center;html=1;shape=mxgraph.aws3.mysql_db_instance_2;fillColor=#2E73B8;gradientColor=none;" vertex="1" parent="WIyWlLk6GJQsqaUBKTNV-1">
          <mxGeometry x="30" y="1900" width="60" height="63" as="geometry" />
        </mxCell>
        <mxCell id="E5Nv5NFeGknIxwn_lmIp-33" value="" style="outlineConnect=0;dashed=0;verticalLabelPosition=bottom;verticalAlign=top;align=center;html=1;shape=mxgraph.aws3.mysql_db_instance;fillColor=#2E73B8;gradientColor=none;" vertex="1" parent="WIyWlLk6GJQsqaUBKTNV-1">
          <mxGeometry x="-20" y="1830" width="60" height="64.5" as="geometry" />
        </mxCell>
        <mxCell id="E5Nv5NFeGknIxwn_lmIp-34" value="&lt;font style=&quot;font-size: 18px&quot;&gt;shard1&lt;/font&gt;" style="text;html=1;strokeColor=none;fillColor=none;align=center;verticalAlign=middle;whiteSpace=wrap;rounded=0;" vertex="1" parent="WIyWlLk6GJQsqaUBKTNV-1">
          <mxGeometry x="-170" y="1770" width="70" height="40" as="geometry" />
        </mxCell>
        <mxCell id="E5Nv5NFeGknIxwn_lmIp-35" value="&lt;font style=&quot;font-size: 18px&quot;&gt;shard2&lt;/font&gt;" style="text;html=1;strokeColor=none;fillColor=none;align=center;verticalAlign=middle;whiteSpace=wrap;rounded=0;" vertex="1" parent="WIyWlLk6GJQsqaUBKTNV-1">
          <mxGeometry x="-320" y="1970" width="70" height="40" as="geometry" />
        </mxCell>
        <mxCell id="E5Nv5NFeGknIxwn_lmIp-36" value="&lt;font style=&quot;font-size: 18px&quot;&gt;shard3&lt;/font&gt;" style="text;html=1;strokeColor=none;fillColor=none;align=center;verticalAlign=middle;whiteSpace=wrap;rounded=0;" vertex="1" parent="WIyWlLk6GJQsqaUBKTNV-1">
          <mxGeometry x="-20" y="1970" width="70" height="40" as="geometry" />
        </mxCell>
        <mxCell id="E5Nv5NFeGknIxwn_lmIp-37" value="" style="outlineConnect=0;verticalLabelPosition=bottom;verticalAlign=top;align=center;html=1;shape=mxgraph.aws3.mysql_db_instance_2;fillColor=#A680B8;gradientColor=none;opacity=70;shadow=1;" vertex="1" parent="WIyWlLk6GJQsqaUBKTNV-1">
          <mxGeometry x="566" y="1907" width="60" height="63" as="geometry" />
        </mxCell>
        <mxCell id="E5Nv5NFeGknIxwn_lmIp-38" value="" style="outlineConnect=0;verticalLabelPosition=bottom;verticalAlign=top;align=center;html=1;shape=mxgraph.aws3.mysql_db_instance_2;fillColor=#A680B8;gradientColor=none;opacity=70;shadow=1;" vertex="1" parent="WIyWlLk6GJQsqaUBKTNV-1">
          <mxGeometry x="666" y="1907" width="60" height="63" as="geometry" />
        </mxCell>
        <mxCell id="E5Nv5NFeGknIxwn_lmIp-39" value="" style="outlineConnect=0;verticalLabelPosition=bottom;verticalAlign=top;align=center;html=1;shape=mxgraph.aws3.mysql_db_instance;fillColor=#A680B8;gradientColor=none;opacity=70;shadow=1;" vertex="1" parent="WIyWlLk6GJQsqaUBKTNV-1">
          <mxGeometry x="616" y="1837" width="60" height="64.5" as="geometry" />
        </mxCell>
        <mxCell id="E5Nv5NFeGknIxwn_lmIp-40" value="&lt;font style=&quot;font-size: 18px&quot;&gt;shard-new&lt;/font&gt;" style="text;html=1;strokeColor=none;fillColor=none;align=center;verticalAlign=middle;whiteSpace=wrap;rounded=0;opacity=70;shadow=1;" vertex="1" parent="WIyWlLk6GJQsqaUBKTNV-1">
          <mxGeometry x="596" y="1970" width="100" height="40" as="geometry" />
        </mxCell>
        <mxCell id="E5Nv5NFeGknIxwn_lmIp-41" value="" style="html=1;shadow=0;dashed=0;align=center;verticalAlign=middle;shape=mxgraph.arrows2.stylisedArrow;dy=0.6;dx=40;notch=15;feather=0.4;fontSize=18;fillColor=#67AB9F;opacity=70;strokeColor=none;" vertex="1" parent="WIyWlLk6GJQsqaUBKTNV-1">
          <mxGeometry x="160" y="1790" width="70" height="40" as="geometry" />
        </mxCell>
        <mxCell id="E5Nv5NFeGknIxwn_lmIp-42" value="" style="outlineConnect=0;dashed=0;verticalLabelPosition=bottom;verticalAlign=top;align=center;html=1;shape=mxgraph.aws3.mysql_db_instance_2;fillColor=#2E73B8;gradientColor=none;" vertex="1" parent="WIyWlLk6GJQsqaUBKTNV-1">
          <mxGeometry x="289" y="1700" width="60" height="63" as="geometry" />
        </mxCell>
        <mxCell id="E5Nv5NFeGknIxwn_lmIp-43" value="" style="outlineConnect=0;dashed=0;verticalLabelPosition=bottom;verticalAlign=top;align=center;html=1;shape=mxgraph.aws3.mysql_db_instance_2;fillColor=#2E73B8;gradientColor=none;" vertex="1" parent="WIyWlLk6GJQsqaUBKTNV-1">
          <mxGeometry x="389" y="1700" width="60" height="63" as="geometry" />
        </mxCell>
        <mxCell id="E5Nv5NFeGknIxwn_lmIp-44" value="" style="outlineConnect=0;dashed=0;verticalLabelPosition=bottom;verticalAlign=top;align=center;html=1;shape=mxgraph.aws3.mysql_db_instance;fillColor=#2E73B8;gradientColor=none;" vertex="1" parent="WIyWlLk6GJQsqaUBKTNV-1">
          <mxGeometry x="339" y="1630" width="60" height="64.5" as="geometry" />
        </mxCell>
        <mxCell id="E5Nv5NFeGknIxwn_lmIp-45" value="" style="outlineConnect=0;dashed=0;verticalLabelPosition=bottom;verticalAlign=top;align=center;html=1;shape=mxgraph.aws3.mysql_db_instance_2;fillColor=#2E73B8;gradientColor=none;" vertex="1" parent="WIyWlLk6GJQsqaUBKTNV-1">
          <mxGeometry x="289" y="1900" width="60" height="63" as="geometry" />
        </mxCell>
        <mxCell id="E5Nv5NFeGknIxwn_lmIp-46" value="" style="outlineConnect=0;dashed=0;verticalLabelPosition=bottom;verticalAlign=top;align=center;html=1;shape=mxgraph.aws3.mysql_db_instance_2;fillColor=#2E73B8;gradientColor=none;" vertex="1" parent="WIyWlLk6GJQsqaUBKTNV-1">
          <mxGeometry x="389" y="1900" width="60" height="63" as="geometry" />
        </mxCell>
        <mxCell id="E5Nv5NFeGknIxwn_lmIp-47" value="" style="outlineConnect=0;dashed=0;verticalLabelPosition=bottom;verticalAlign=top;align=center;html=1;shape=mxgraph.aws3.mysql_db_instance;fillColor=#2E73B8;gradientColor=none;" vertex="1" parent="WIyWlLk6GJQsqaUBKTNV-1">
          <mxGeometry x="339" y="1830" width="60" height="64.5" as="geometry" />
        </mxCell>
        <mxCell id="E5Nv5NFeGknIxwn_lmIp-48" value="" style="outlineConnect=0;dashed=0;verticalLabelPosition=bottom;verticalAlign=top;align=center;html=1;shape=mxgraph.aws3.mysql_db_instance_2;fillColor=#2E73B8;gradientColor=none;" vertex="1" parent="WIyWlLk6GJQsqaUBKTNV-1">
          <mxGeometry x="561" y="1694.5" width="60" height="63" as="geometry" />
        </mxCell>
        <mxCell id="E5Nv5NFeGknIxwn_lmIp-49" value="" style="outlineConnect=0;dashed=0;verticalLabelPosition=bottom;verticalAlign=top;align=center;html=1;shape=mxgraph.aws3.mysql_db_instance_2;fillColor=#2E73B8;gradientColor=none;" vertex="1" parent="WIyWlLk6GJQsqaUBKTNV-1">
          <mxGeometry x="661" y="1694.5" width="60" height="63" as="geometry" />
        </mxCell>
        <mxCell id="E5Nv5NFeGknIxwn_lmIp-50" value="" style="outlineConnect=0;dashed=0;verticalLabelPosition=bottom;verticalAlign=top;align=center;html=1;shape=mxgraph.aws3.mysql_db_instance;fillColor=#2E73B8;gradientColor=none;" vertex="1" parent="WIyWlLk6GJQsqaUBKTNV-1">
          <mxGeometry x="611" y="1624.5" width="60" height="64.5" as="geometry" />
        </mxCell>
        <mxCell id="E5Nv5NFeGknIxwn_lmIp-51" value="&lt;font style=&quot;font-size: 18px&quot;&gt;shard1&lt;/font&gt;" style="text;html=1;strokeColor=none;fillColor=none;align=center;verticalAlign=middle;whiteSpace=wrap;rounded=0;" vertex="1" parent="WIyWlLk6GJQsqaUBKTNV-1">
          <mxGeometry x="339" y="1770" width="70" height="40" as="geometry" />
        </mxCell>
        <mxCell id="E5Nv5NFeGknIxwn_lmIp-52" value="&lt;font style=&quot;font-size: 18px&quot;&gt;shard2&lt;/font&gt;" style="text;html=1;strokeColor=none;fillColor=none;align=center;verticalAlign=middle;whiteSpace=wrap;rounded=0;" vertex="1" parent="WIyWlLk6GJQsqaUBKTNV-1">
          <mxGeometry x="339" y="1970" width="70" height="40" as="geometry" />
        </mxCell>
        <mxCell id="E5Nv5NFeGknIxwn_lmIp-53" value="&lt;font style=&quot;font-size: 18px&quot;&gt;shard3&lt;/font&gt;" style="text;html=1;strokeColor=none;fillColor=none;align=center;verticalAlign=middle;whiteSpace=wrap;rounded=0;" vertex="1" parent="WIyWlLk6GJQsqaUBKTNV-1">
          <mxGeometry x="611" y="1764.5" width="70" height="40" as="geometry" />
        </mxCell>
        <mxCell id="E5Nv5NFeGknIxwn_lmIp-54" value="" style="rounded=0;whiteSpace=wrap;html=1;shadow=0;fontSize=18;fillColor=none;opacity=70;dashed=1;strokeWidth=2;" vertex="1" parent="WIyWlLk6GJQsqaUBKTNV-1">
          <mxGeometry x="-360" y="1610" width="480" height="410" as="geometry" />
        </mxCell>
        <mxCell id="E5Nv5NFeGknIxwn_lmIp-56" value="" style="rounded=0;whiteSpace=wrap;html=1;shadow=0;fontSize=18;fillColor=none;opacity=70;dashed=1;strokeWidth=2;" vertex="1" parent="WIyWlLk6GJQsqaUBKTNV-1">
          <mxGeometry x="260" y="1610" width="480" height="410" as="geometry" />
        </mxCell>
        <mxCell id="E5Nv5NFeGknIxwn_lmIp-57" value="" style="outlineConnect=0;verticalLabelPosition=bottom;verticalAlign=top;align=center;html=1;shape=mxgraph.aws3.mysql_db_instance_2;fillColor=#A680B8;gradientColor=none;opacity=70;shadow=1;" vertex="1" parent="WIyWlLk6GJQsqaUBKTNV-1">
          <mxGeometry x="26" y="2417" width="60" height="63" as="geometry" />
        </mxCell>
        <mxCell id="E5Nv5NFeGknIxwn_lmIp-58" value="" style="outlineConnect=0;verticalLabelPosition=bottom;verticalAlign=top;align=center;html=1;shape=mxgraph.aws3.mysql_db_instance_2;fillColor=#A680B8;gradientColor=none;opacity=70;shadow=1;" vertex="1" parent="WIyWlLk6GJQsqaUBKTNV-1">
          <mxGeometry x="126" y="2417" width="60" height="63" as="geometry" />
        </mxCell>
        <mxCell id="E5Nv5NFeGknIxwn_lmIp-59" value="" style="outlineConnect=0;verticalLabelPosition=bottom;verticalAlign=top;align=center;html=1;shape=mxgraph.aws3.mysql_db_instance;fillColor=#A680B8;gradientColor=none;opacity=70;shadow=1;" vertex="1" parent="WIyWlLk6GJQsqaUBKTNV-1">
          <mxGeometry x="76" y="2347" width="60" height="64.5" as="geometry" />
        </mxCell>
        <mxCell id="E5Nv5NFeGknIxwn_lmIp-60" value="&lt;font style=&quot;font-size: 18px&quot;&gt;shard-new&lt;/font&gt;" style="text;html=1;strokeColor=none;fillColor=none;align=center;verticalAlign=middle;whiteSpace=wrap;rounded=0;opacity=70;shadow=1;" vertex="1" parent="WIyWlLk6GJQsqaUBKTNV-1">
          <mxGeometry x="56" y="2480" width="100" height="40" as="geometry" />
        </mxCell>
        <mxCell id="E5Nv5NFeGknIxwn_lmIp-64" value="" style="outlineConnect=0;dashed=0;verticalLabelPosition=bottom;verticalAlign=top;align=center;html=1;shape=mxgraph.aws3.mysql_db_instance_2;fillColor=#2E73B8;gradientColor=none;" vertex="1" parent="WIyWlLk6GJQsqaUBKTNV-1">
          <mxGeometry x="-251" y="2417" width="60" height="63" as="geometry" />
        </mxCell>
        <mxCell id="E5Nv5NFeGknIxwn_lmIp-65" value="" style="outlineConnect=0;dashed=0;verticalLabelPosition=bottom;verticalAlign=top;align=center;html=1;shape=mxgraph.aws3.mysql_db_instance_2;fillColor=#2E73B8;gradientColor=none;" vertex="1" parent="WIyWlLk6GJQsqaUBKTNV-1">
          <mxGeometry x="-151" y="2417" width="60" height="63" as="geometry" />
        </mxCell>
        <mxCell id="E5Nv5NFeGknIxwn_lmIp-66" value="" style="outlineConnect=0;dashed=0;verticalLabelPosition=bottom;verticalAlign=top;align=center;html=1;shape=mxgraph.aws3.mysql_db_instance;fillColor=#2E73B8;gradientColor=none;" vertex="1" parent="WIyWlLk6GJQsqaUBKTNV-1">
          <mxGeometry x="-201" y="2347" width="60" height="64.5" as="geometry" />
        </mxCell>
        <mxCell id="E5Nv5NFeGknIxwn_lmIp-71" value="&lt;font style=&quot;font-size: 18px&quot;&gt;shard2&lt;/font&gt;" style="text;html=1;strokeColor=none;fillColor=none;align=center;verticalAlign=middle;whiteSpace=wrap;rounded=0;" vertex="1" parent="WIyWlLk6GJQsqaUBKTNV-1">
          <mxGeometry x="-201" y="2487" width="70" height="40" as="geometry" />
        </mxCell>
        <mxCell id="E5Nv5NFeGknIxwn_lmIp-77" value="" style="verticalLabelPosition=bottom;html=1;verticalAlign=top;align=center;strokeColor=none;fillColor=#00BEF2;shape=mxgraph.azure.sql_reporting;shadow=0;dashed=1;fontSize=18;opacity=70;" vertex="1" parent="WIyWlLk6GJQsqaUBKTNV-1">
          <mxGeometry x="30" y="2540" width="40" height="50" as="geometry" />
        </mxCell>
        <mxCell id="E5Nv5NFeGknIxwn_lmIp-78" value="" style="html=1;shadow=0;dashed=0;align=center;verticalAlign=middle;shape=mxgraph.arrows2.jumpInArrow;dy=7.38;dx=47.73;arrowHead=55;fontSize=18;strokeWidth=2;fillColor=#fff2cc;opacity=70;rotation=60;strokeColor=none;gradientColor=#ffd966;" vertex="1" parent="WIyWlLk6GJQsqaUBKTNV-1">
          <mxGeometry x="-85.14" y="2448.07" width="136" height="70" as="geometry" />
        </mxCell>
        <mxCell id="E5Nv5NFeGknIxwn_lmIp-79" value="" style="outlineConnect=0;verticalLabelPosition=bottom;verticalAlign=top;align=center;html=1;shape=mxgraph.aws3.mysql_db_instance_2;fillColor=#A680B8;gradientColor=none;opacity=70;shadow=1;" vertex="1" parent="WIyWlLk6GJQsqaUBKTNV-1">
          <mxGeometry x="37" y="2710" width="60" height="63" as="geometry" />
        </mxCell>
        <mxCell id="E5Nv5NFeGknIxwn_lmIp-80" value="" style="outlineConnect=0;verticalLabelPosition=bottom;verticalAlign=top;align=center;html=1;shape=mxgraph.aws3.mysql_db_instance_2;fillColor=#A680B8;gradientColor=none;opacity=70;shadow=1;" vertex="1" parent="WIyWlLk6GJQsqaUBKTNV-1">
          <mxGeometry x="137" y="2710" width="60" height="63" as="geometry" />
        </mxCell>
        <mxCell id="E5Nv5NFeGknIxwn_lmIp-81" value="" style="outlineConnect=0;verticalLabelPosition=bottom;verticalAlign=top;align=center;html=1;shape=mxgraph.aws3.mysql_db_instance;fillColor=#A680B8;gradientColor=none;opacity=70;shadow=1;" vertex="1" parent="WIyWlLk6GJQsqaUBKTNV-1">
          <mxGeometry x="87" y="2640" width="60" height="64.5" as="geometry" />
        </mxCell>
        <mxCell id="E5Nv5NFeGknIxwn_lmIp-82" value="&lt;font style=&quot;font-size: 18px&quot;&gt;shard-new&lt;/font&gt;" style="text;html=1;strokeColor=none;fillColor=none;align=center;verticalAlign=middle;whiteSpace=wrap;rounded=0;opacity=70;shadow=1;" vertex="1" parent="WIyWlLk6GJQsqaUBKTNV-1">
          <mxGeometry x="67" y="2773" width="100" height="40" as="geometry" />
        </mxCell>
        <mxCell id="E5Nv5NFeGknIxwn_lmIp-83" value="" style="outlineConnect=0;dashed=0;verticalLabelPosition=bottom;verticalAlign=top;align=center;html=1;shape=mxgraph.aws3.mysql_db_instance_2;fillColor=#2E73B8;gradientColor=none;" vertex="1" parent="WIyWlLk6GJQsqaUBKTNV-1">
          <mxGeometry x="-240" y="2710" width="60" height="63" as="geometry" />
        </mxCell>
        <mxCell id="E5Nv5NFeGknIxwn_lmIp-84" value="" style="outlineConnect=0;dashed=0;verticalLabelPosition=bottom;verticalAlign=top;align=center;html=1;shape=mxgraph.aws3.mysql_db_instance_2;fillColor=#2E73B8;gradientColor=none;" vertex="1" parent="WIyWlLk6GJQsqaUBKTNV-1">
          <mxGeometry x="-140" y="2710" width="60" height="63" as="geometry" />
        </mxCell>
        <mxCell id="E5Nv5NFeGknIxwn_lmIp-85" value="" style="outlineConnect=0;dashed=0;verticalLabelPosition=bottom;verticalAlign=top;align=center;html=1;shape=mxgraph.aws3.mysql_db_instance;fillColor=#2E73B8;gradientColor=none;" vertex="1" parent="WIyWlLk6GJQsqaUBKTNV-1">
          <mxGeometry x="-190" y="2640" width="60" height="64.5" as="geometry" />
        </mxCell>
        <mxCell id="E5Nv5NFeGknIxwn_lmIp-86" value="&lt;font style=&quot;font-size: 18px&quot;&gt;shard2&lt;/font&gt;" style="text;html=1;strokeColor=none;fillColor=none;align=center;verticalAlign=middle;whiteSpace=wrap;rounded=0;" vertex="1" parent="WIyWlLk6GJQsqaUBKTNV-1">
          <mxGeometry x="-190" y="2780" width="70" height="40" as="geometry" />
        </mxCell>
        <mxCell id="E5Nv5NFeGknIxwn_lmIp-87" value="" style="verticalLabelPosition=bottom;html=1;verticalAlign=top;align=center;strokeColor=none;fillColor=#00BEF2;shape=mxgraph.azure.sql_reporting;shadow=0;dashed=1;fontSize=18;opacity=70;" vertex="1" parent="WIyWlLk6GJQsqaUBKTNV-1">
          <mxGeometry x="-30" y="2800" width="40" height="50" as="geometry" />
        </mxCell>
        <mxCell id="E5Nv5NFeGknIxwn_lmIp-91" value="" style="html=1;shadow=0;dashed=0;align=center;verticalAlign=middle;shape=mxgraph.arrows2.bendArrow;dy=15;dx=38;notch=0;arrowHead=55;rounded=1;fontSize=18;strokeWidth=2;fillColor=#d5e8d4;opacity=70;gradientColor=#97d077;strokeColor=none;" vertex="1" parent="WIyWlLk6GJQsqaUBKTNV-1">
          <mxGeometry x="-30" y="2650" width="100" height="140" as="geometry" />
        </mxCell>
        <mxCell id="E5Nv5NFeGknIxwn_lmIp-92" value="" style="outlineConnect=0;verticalLabelPosition=bottom;verticalAlign=top;align=center;html=1;shape=mxgraph.aws3.mysql_db_instance_2;fillColor=#A680B8;gradientColor=none;opacity=70;shadow=1;" vertex="1" parent="WIyWlLk6GJQsqaUBKTNV-1">
          <mxGeometry x="26" y="3010" width="60" height="63" as="geometry" />
        </mxCell>
        <mxCell id="E5Nv5NFeGknIxwn_lmIp-93" value="" style="outlineConnect=0;verticalLabelPosition=bottom;verticalAlign=top;align=center;html=1;shape=mxgraph.aws3.mysql_db_instance_2;fillColor=#A680B8;gradientColor=none;opacity=70;shadow=1;" vertex="1" parent="WIyWlLk6GJQsqaUBKTNV-1">
          <mxGeometry x="126" y="3010" width="60" height="63" as="geometry" />
        </mxCell>
        <mxCell id="E5Nv5NFeGknIxwn_lmIp-94" value="" style="outlineConnect=0;verticalLabelPosition=bottom;verticalAlign=top;align=center;html=1;shape=mxgraph.aws3.mysql_db_instance;fillColor=#A680B8;gradientColor=none;opacity=70;shadow=1;" vertex="1" parent="WIyWlLk6GJQsqaUBKTNV-1">
          <mxGeometry x="76" y="2940" width="60" height="64.5" as="geometry" />
        </mxCell>
        <mxCell id="E5Nv5NFeGknIxwn_lmIp-95" value="&lt;font style=&quot;font-size: 18px&quot;&gt;shard-new&lt;/font&gt;" style="text;html=1;strokeColor=none;fillColor=none;align=center;verticalAlign=middle;whiteSpace=wrap;rounded=0;opacity=70;shadow=1;" vertex="1" parent="WIyWlLk6GJQsqaUBKTNV-1">
          <mxGeometry x="56" y="3073" width="100" height="40" as="geometry" />
        </mxCell>
        <mxCell id="E5Nv5NFeGknIxwn_lmIp-96" value="" style="outlineConnect=0;dashed=0;verticalLabelPosition=bottom;verticalAlign=top;align=center;html=1;shape=mxgraph.aws3.mysql_db_instance_2;fillColor=#2E73B8;gradientColor=none;" vertex="1" parent="WIyWlLk6GJQsqaUBKTNV-1">
          <mxGeometry x="-251" y="3010" width="60" height="63" as="geometry" />
        </mxCell>
        <mxCell id="E5Nv5NFeGknIxwn_lmIp-97" value="" style="outlineConnect=0;dashed=0;verticalLabelPosition=bottom;verticalAlign=top;align=center;html=1;shape=mxgraph.aws3.mysql_db_instance_2;fillColor=#2E73B8;gradientColor=none;" vertex="1" parent="WIyWlLk6GJQsqaUBKTNV-1">
          <mxGeometry x="-151" y="3010" width="60" height="63" as="geometry" />
        </mxCell>
        <mxCell id="E5Nv5NFeGknIxwn_lmIp-98" value="" style="outlineConnect=0;dashed=0;verticalLabelPosition=bottom;verticalAlign=top;align=center;html=1;shape=mxgraph.aws3.mysql_db_instance;fillColor=#2E73B8;gradientColor=none;" vertex="1" parent="WIyWlLk6GJQsqaUBKTNV-1">
          <mxGeometry x="-201" y="2940" width="60" height="64.5" as="geometry" />
        </mxCell>
        <mxCell id="E5Nv5NFeGknIxwn_lmIp-99" value="&lt;font style=&quot;font-size: 18px&quot;&gt;shard2&lt;/font&gt;" style="text;html=1;strokeColor=none;fillColor=none;align=center;verticalAlign=middle;whiteSpace=wrap;rounded=0;" vertex="1" parent="WIyWlLk6GJQsqaUBKTNV-1">
          <mxGeometry x="-201" y="3080" width="70" height="40" as="geometry" />
        </mxCell>
        <mxCell id="E5Nv5NFeGknIxwn_lmIp-104" value="" style="shape=flexArrow;html=1;rounded=0;fontSize=18;" edge="1" parent="WIyWlLk6GJQsqaUBKTNV-1">
          <mxGeometry width="100" relative="1" as="geometry">
            <mxPoint x="-114" y="2971.75" as="sourcePoint" />
            <mxPoint x="56" y="2971.75" as="targetPoint" />
          </mxGeometry>
        </mxCell>
        <mxCell id="E5Nv5NFeGknIxwn_lmIp-105" value="SYNC" style="edgeLabel;html=1;align=center;verticalAlign=middle;resizable=0;points=[];fontSize=18;" vertex="1" connectable="0" parent="E5Nv5NFeGknIxwn_lmIp-104">
          <mxGeometry x="-0.0706" y="-3" relative="1" as="geometry">
            <mxPoint x="5" y="-2" as="offset" />
          </mxGeometry>
        </mxCell>
        <mxCell id="E5Nv5NFeGknIxwn_lmIp-106" value="" style="outlineConnect=0;verticalLabelPosition=bottom;verticalAlign=top;align=center;html=1;shape=mxgraph.aws3.mysql_db_instance_2;fillColor=#A680B8;gradientColor=none;opacity=70;shadow=1;" vertex="1" parent="WIyWlLk6GJQsqaUBKTNV-1">
          <mxGeometry x="1676" y="1379" width="60" height="63" as="geometry" />
        </mxCell>
        <mxCell id="E5Nv5NFeGknIxwn_lmIp-107" value="" style="outlineConnect=0;verticalLabelPosition=bottom;verticalAlign=top;align=center;html=1;shape=mxgraph.aws3.mysql_db_instance_2;fillColor=#A680B8;gradientColor=none;opacity=70;shadow=1;" vertex="1" parent="WIyWlLk6GJQsqaUBKTNV-1">
          <mxGeometry x="1776" y="1379" width="60" height="63" as="geometry" />
        </mxCell>
        <mxCell id="E5Nv5NFeGknIxwn_lmIp-108" value="" style="outlineConnect=0;verticalLabelPosition=bottom;verticalAlign=top;align=center;html=1;shape=mxgraph.aws3.mysql_db_instance;fillColor=#A680B8;gradientColor=none;opacity=70;shadow=1;" vertex="1" parent="WIyWlLk6GJQsqaUBKTNV-1">
          <mxGeometry x="1726" y="1309" width="60" height="64.5" as="geometry" />
        </mxCell>
        <mxCell id="E5Nv5NFeGknIxwn_lmIp-109" value="&lt;font style=&quot;font-size: 18px&quot;&gt;shard-new&lt;/font&gt;" style="text;html=1;strokeColor=none;fillColor=none;align=center;verticalAlign=middle;whiteSpace=wrap;rounded=0;opacity=70;shadow=1;" vertex="1" parent="WIyWlLk6GJQsqaUBKTNV-1">
          <mxGeometry x="1706" y="1442" width="100" height="40" as="geometry" />
        </mxCell>
        <mxCell id="E5Nv5NFeGknIxwn_lmIp-110" value="" style="sketch=0;outlineConnect=0;fontColor=#232F3E;gradientColor=none;fillColor=#2E27AD;strokeColor=none;dashed=0;verticalLabelPosition=bottom;verticalAlign=top;align=center;html=1;fontSize=12;fontStyle=0;aspect=fixed;pointerEvents=1;shape=mxgraph.aws4.rds_mysql_instance;shadow=0;opacity=70;" vertex="1" parent="WIyWlLk6GJQsqaUBKTNV-1">
          <mxGeometry x="771" y="1135" width="78" height="78" as="geometry" />
        </mxCell>
        <mxCell id="E5Nv5NFeGknIxwn_lmIp-111" value="" style="sketch=0;outlineConnect=0;fontColor=#232F3E;gradientColor=none;fillColor=#2E27AD;strokeColor=none;dashed=0;verticalLabelPosition=bottom;verticalAlign=top;align=center;html=1;fontSize=12;fontStyle=0;aspect=fixed;pointerEvents=1;shape=mxgraph.aws4.rds_mysql_instance;shadow=0;opacity=70;" vertex="1" parent="WIyWlLk6GJQsqaUBKTNV-1">
          <mxGeometry x="721" y="1215" width="78" height="78" as="geometry" />
        </mxCell>
        <mxCell id="E5Nv5NFeGknIxwn_lmIp-112" value="" style="sketch=0;outlineConnect=0;fontColor=#232F3E;gradientColor=none;fillColor=#2E27AD;strokeColor=none;dashed=0;verticalLabelPosition=bottom;verticalAlign=top;align=center;html=1;fontSize=12;fontStyle=0;aspect=fixed;pointerEvents=1;shape=mxgraph.aws4.rds_mysql_instance;shadow=0;opacity=70;" vertex="1" parent="WIyWlLk6GJQsqaUBKTNV-1">
          <mxGeometry x="815" y="1215" width="80" height="80" as="geometry" />
        </mxCell>
        <mxCell id="E5Nv5NFeGknIxwn_lmIp-113" value="&lt;font size=&quot;4&quot;&gt;meta-cluster&lt;/font&gt;" style="text;html=1;strokeColor=none;fillColor=none;align=center;verticalAlign=middle;whiteSpace=wrap;rounded=0;" vertex="1" parent="WIyWlLk6GJQsqaUBKTNV-1">
          <mxGeometry x="756" y="1295" width="108" height="40" as="geometry" />
        </mxCell>
        <mxCell id="E5Nv5NFeGknIxwn_lmIp-115" value="" style="shape=image;html=1;verticalAlign=top;verticalLabelPosition=bottom;labelBackgroundColor=#ffffff;imageAspect=0;aspect=fixed;image=https://cdn0.iconfinder.com/data/icons/social-media-entertainment-line/32/Evernote-128.png;shadow=0;dashed=1;fontSize=18;strokeWidth=2;fillColor=none;opacity=70;" vertex="1" parent="WIyWlLk6GJQsqaUBKTNV-1">
          <mxGeometry x="1204" y="1105" width="68" height="68" as="geometry" />
        </mxCell>
        <mxCell id="E5Nv5NFeGknIxwn_lmIp-116" value="" style="rounded=1;whiteSpace=wrap;html=1;shadow=1;fontSize=18;strokeWidth=2;fillColor=none;opacity=70;glass=0;sketch=0;" vertex="1" parent="WIyWlLk6GJQsqaUBKTNV-1">
          <mxGeometry x="1190" y="1096" width="96" height="82" as="geometry" />
        </mxCell>
        <mxCell id="E5Nv5NFeGknIxwn_lmIp-117" value="" style="shape=image;html=1;verticalAlign=top;verticalLabelPosition=bottom;labelBackgroundColor=#ffffff;imageAspect=0;aspect=fixed;image=https://cdn0.iconfinder.com/data/icons/social-media-entertainment-line/32/Evernote-128.png;shadow=0;dashed=1;fontSize=18;strokeWidth=2;fillColor=none;opacity=70;" vertex="1" parent="WIyWlLk6GJQsqaUBKTNV-1">
          <mxGeometry x="1364" y="1104" width="68" height="68" as="geometry" />
        </mxCell>
        <mxCell id="E5Nv5NFeGknIxwn_lmIp-118" value="" style="rounded=1;whiteSpace=wrap;html=1;shadow=1;fontSize=18;strokeWidth=2;fillColor=none;opacity=70;glass=0;sketch=0;" vertex="1" parent="WIyWlLk6GJQsqaUBKTNV-1">
          <mxGeometry x="1350" y="1095" width="96" height="82" as="geometry" />
        </mxCell>
        <mxCell id="E5Nv5NFeGknIxwn_lmIp-119" value="" style="shape=image;html=1;verticalAlign=top;verticalLabelPosition=bottom;labelBackgroundColor=#ffffff;imageAspect=0;aspect=fixed;image=https://cdn0.iconfinder.com/data/icons/social-media-entertainment-line/32/Evernote-128.png;shadow=0;dashed=1;fontSize=18;strokeWidth=2;fillColor=none;opacity=70;" vertex="1" parent="WIyWlLk6GJQsqaUBKTNV-1">
          <mxGeometry x="1514" y="1104" width="68" height="68" as="geometry" />
        </mxCell>
        <mxCell id="E5Nv5NFeGknIxwn_lmIp-120" value="" style="rounded=1;whiteSpace=wrap;html=1;shadow=1;fontSize=18;strokeWidth=2;fillColor=none;opacity=70;glass=0;sketch=0;" vertex="1" parent="WIyWlLk6GJQsqaUBKTNV-1">
          <mxGeometry x="1500" y="1095" width="96" height="82" as="geometry" />
        </mxCell>
        <mxCell id="E5Nv5NFeGknIxwn_lmIp-121" value="" style="line;strokeWidth=2;html=1;rounded=1;shadow=1;glass=0;sketch=0;fontSize=18;fillColor=none;opacity=70;" vertex="1" parent="WIyWlLk6GJQsqaUBKTNV-1">
          <mxGeometry x="970" y="1230" width="870" height="10" as="geometry" />
        </mxCell>
        <mxCell id="E5Nv5NFeGknIxwn_lmIp-123" value="" style="endArrow=classic;html=1;rounded=0;fontSize=18;edgeStyle=orthogonalEdgeStyle;curved=1;strokeWidth=3;" edge="1" parent="WIyWlLk6GJQsqaUBKTNV-1">
          <mxGeometry width="50" height="50" relative="1" as="geometry">
            <mxPoint x="827" y="1124" as="sourcePoint" />
            <mxPoint x="1388" y="1050" as="targetPoint" />
            <Array as="points">
              <mxPoint x="827" y="960" />
              <mxPoint x="1388" y="960" />
            </Array>
          </mxGeometry>
        </mxCell>
        <mxCell id="E5Nv5NFeGknIxwn_lmIp-124" value="" style="shape=curlyBracket;whiteSpace=wrap;html=1;rounded=1;shadow=1;glass=0;sketch=0;fontSize=18;strokeWidth=2;fillColor=none;opacity=70;rotation=90;" vertex="1" parent="WIyWlLk6GJQsqaUBKTNV-1">
          <mxGeometry x="1377.5" y="867.5" width="20" height="385" as="geometry" />
        </mxCell>
        <mxCell id="E5Nv5NFeGknIxwn_lmIp-126" value="reroute" style="text;strokeColor=none;fillColor=none;html=1;fontSize=24;fontStyle=1;verticalAlign=middle;align=center;rounded=1;shadow=1;glass=0;sketch=0;opacity=70;" vertex="1" parent="WIyWlLk6GJQsqaUBKTNV-1">
          <mxGeometry x="1056" y="920" width="100" height="40" as="geometry" />
        </mxCell>
      </root>
    </mxGraphModel>
  </diagram>
</mxfile>
